<?xml version="1.0" encoding="utf-8"?>
<!-- Generator: Adobe Illustrator 19.2.0, SVG Export Plug-In . SVG Version: 6.00 Build 0)  -->
<svg version="1.1" id="Layer_1" xmlns="http://www.w3.org/2000/svg" xmlns:xlink="http://www.w3.org/1999/xlink" x="0px" y="0px"
	 viewBox="0 0 960 560" style="enable-background:new 0 0 960 560;" xml:space="preserve">
<g>
	<path d="M625.1,484c8.6,10.1,17.3,20.1,26.6,29.5c4.6,4.7,9.4,9.2,14.4,13.4c5,4.1,10.2,8,15.8,10.5c1.4,0.6,2.8,1.1,4.1,1.4
		c0.7,0.2,1.3,0.2,2,0.3c0.3,0,0.6,0,0.9,0l0.5,0l0.4,0c0.3,0,0.6,0,0.8-0.1c0.3-0.1,0.5-0.1,0.8-0.2c0.3-0.1,0.5-0.2,0.7-0.3
		l0.2-0.1l0.1,0c-0.4,0.2,0,0-0.1,0l0.5-0.3l0.3-0.1c0.1,0,0.2-0.1,0.2-0.1c0.1-0.1,0.1-0.1,0.2-0.2c0.1-0.1,0.1-0.1,0.2-0.2
		l0.3-0.3c0.2-0.2,0.4-0.4,0.5-0.6c0.2-0.2,0.4-0.4,0.5-0.6c0.7-0.9,1.3-2.1,1.8-3.3c0.5-1.3,0.9-2.7,1.2-4.2
		c0.6-2.9,0.8-6.1,0.9-9.2c0.2-6.4-0.2-12.9-0.7-19.4c-0.5-6.5-1.2-13.1-2-19.6l-4.9-39.4c-1.6-13.2-3.1-26.4-4.2-39.7
		c-1.1-13.3-1.9-26.6-2.3-39.9c-0.3-13.3-0.2-26.7,0.7-40.1l0.6-9.9l1-10l0.5-5c0.2-1.7,0.4-3.3,0.7-5l1.4-9.9
		c0.5-3.3,1.1-6.6,1.7-9.9l0.9-4.9l0.4-2.5c0.2-0.8,0.3-1.6,0.5-2.5l2.1-9.8l1.1-4.9l1.2-4.9c1.7-6.5,3.2-13,5.3-19.3l2.9-9.6
		c0.5-1.6,1-3.2,1.6-4.8l1.6-4.7l3.3-9.5c1.1-3.1,2.4-6.2,3.6-9.3l3.6-9.3c1.2-3.1,2.6-6.1,3.9-9.2l4-9.2l1-2.3l1.1-2.3l2.2-4.5
		l4.4-9c0.7-1.5,1.4-3,2.2-4.5l2.3-4.4l4.7-8.8l2.3-4.4l1.2-2.2l1.3-2.2l10.1-17.3c7.1-11.3,14.1-22.6,21.8-33.5l5.7-8.2l1.4-2.1
		l1.5-2l3-4l11.9-16l3.2,6.4l-15.6,0l-7.8,0.1c-2.6,0-5.2,0-7.8-0.1l-31.1-1.2c-10.4-0.4-20.8-0.9-31.1-1.3
		c-10.4-0.4-20.8-1-31.1-1.4c10.4-0.5,20.8-1,31.1-1.4c10.4-0.4,20.8-0.9,31.1-1.3l31.1-1.2c2.6-0.1,5.2-0.2,7.8-0.1l7.8,0.1l15.6,0
		l7.9,0l-4.8,6.4l-11.8,15.9l-2.9,4l-1.5,2l-1.4,2l-5.6,8.1c-7.6,10.8-14.5,22-21.5,33.1l-9.9,17.1l-1.2,2.1l-1.2,2.2l-2.3,4.4
		l-4.6,8.7l-2.3,4.4c-0.8,1.5-1.4,3-2.2,4.4l-4.3,8.9l-2.1,4.4l-1.1,2.2l-1,2.3l-3.9,9c-1.3,3-2.7,6-3.9,9.1l-3.6,9.2
		c-1.2,3.1-2.4,6.1-3.5,9.2l-3.2,9.3L715,211c-0.5,1.6-1.1,3.1-1.5,4.7l-2.8,9.4c-2,6.3-3.5,12.6-5.2,19l-1.2,4.8l-1,4.8l-2.1,9.6
		c-0.2,0.8-0.4,1.6-0.5,2.4l-0.4,2.4l-0.9,4.8c-0.5,3.2-1.2,6.5-1.7,9.7l-1.3,9.7c-0.2,1.6-0.5,3.2-0.7,4.9l-0.5,4.9l-1,9.7
		l-0.6,9.9c-0.9,13-1,26.2-0.7,39.4c0.3,13.1,1.1,26.3,2.2,39.4c1.1,13.1,2.6,26.2,4.1,39.4l4.9,39.4c0.8,6.6,1.5,13.2,2,19.9
		c0.5,6.7,0.9,13.4,0.7,20.3c-0.1,3.4-0.4,6.9-1.1,10.5c-0.3,1.8-0.8,3.6-1.4,5.4c-0.7,1.8-1.5,3.7-2.8,5.4
		c-0.3,0.4-0.6,0.9-1.1,1.3c-0.4,0.4-0.8,0.8-1.2,1.2l-0.7,0.5c-0.2,0.2-0.5,0.4-0.8,0.5l-0.8,0.5c-0.2,0.1-0.2,0.1-0.3,0.2
		l-0.3,0.1l-0.6,0.3l-0.4,0.2l-0.2,0.1l-0.4,0.1c-0.5,0.2-1.1,0.4-1.6,0.5l-1.7,0.3c-0.6,0.1-1.1,0-1.6,0.1l-0.8,0l-0.8-0.1
		c-0.5-0.1-1-0.1-1.5-0.2c-1-0.2-2-0.4-2.9-0.7c-1.9-0.6-3.5-1.4-5.1-2.2c-3.2-1.7-6-3.7-8.7-5.9c-2.7-2.2-5.2-4.5-7.6-6.8
		c-4.9-4.7-9.3-9.7-13.5-14.9C640.4,505.8,632.6,495,625.1,484z"/>
</g>
<g>
	<path d="M625.1,484L566,387.5l-58.9-96.6l-29.4-48.3c-9.8-16.1-19.7-32.2-29.2-48.4L434,169.8l-14.4-24.3l-28.9-48.7l-2-3.3
		l3.3-2.1c10.3-6.6,21.3-12.1,32.7-16.6l4.3-1.6l2.2-0.8l2.2-0.7l4.4-1.4l4.4-1.2l2.2-0.6l2.2-0.5l4.5-1.1l4.5-0.9
		c1.5-0.3,3-0.6,4.5-0.8l4.5-0.7c1.5-0.2,3-0.4,4.6-0.6c3-0.4,6.1-0.6,9.1-0.9c1.5-0.1,3.1-0.1,4.6-0.2c1.5-0.1,3.1-0.1,4.6-0.1
		l4.6,0l4.6,0.1l2.3,0.1l2.3,0.2l4.6,0.3c3,0.4,6.1,0.6,9.1,1.1c6.1,0.8,12.1,2.1,18,3.7l4.4,1.2l4.4,1.4c0.7,0.2,1.5,0.5,2.2,0.7
		l2.2,0.8c1.4,0.5,2.9,1,4.3,1.6c5.7,2.3,11.3,5,16.7,8c5.4,3,10.5,6.5,15.5,10.2l3.6,2.9c1.2,1,2.3,2.1,3.5,3.1l1.7,1.6l1.7,1.6
		l1.6,1.6c0.5,0.5,1.1,1.1,1.6,1.7c4.3,4.6,8.1,9.4,11.7,14.5c3.5,5.1,6.6,10.5,9.3,16.1c5.4,11.1,9.1,23.1,10.8,35.4
		c1.7,12.3,1.3,25-1.8,37.2c-3,12.2-8.8,23.7-16.8,33.4l-1.5,1.8l-0.4,0.5l-0.1,0.1c0,0-0.2,0.2-0.2,0.2l-0.2,0.2l-0.8,0.8
		c-1.1,1.1-2,2.2-3.1,3.2l-3.5,3.3c-1.2,1.1-2.4,2-3.6,3c-4.9,3.8-10.1,7.3-15.6,10.2c-11,5.8-22.8,9.9-34.8,12.3
		c-0.8,0.2-1.5,0.3-2.3,0.5l-2.3,0.4c-1.5,0.2-3,0.5-4.6,0.7c-3.1,0.4-6.1,0.8-9.2,1c-6.1,0.6-12.3,0.6-18.4,0.5
		c-12.3-0.4-24.5-2-36.4-5.1c-11.9-3-23.5-7.2-34.4-12.8c-11-5.5-21.3-12.2-30.9-19.9l6.5-3.2l6.4,246l0.1,4.1l-4.1,0l-278.1-1.4
		l-5.1,0l1.2-4.9L244.1,35.9l3.5-14.2l4.2,14l38.3,126.5l19.3,63.2c3.1,10.6,6.2,21.1,9.3,31.7l9.2,31.7l36.8,127L401.3,543
		l-40.1-126l-39.9-126.1l-9.9-31.5c-3.3-10.5-6.6-21-9.9-31.5l-19.1-63.3L244.1,38l7.7-0.2L142.1,484.5l-3.9-5l278.1,1.4l-4,4.1
		l-6.4-245.9l-0.2-8.7l6.8,5.5c9.1,7.4,19,13.7,29.4,19c10.4,5.3,21.5,9.3,32.8,12.2c11.3,2.9,23,4.5,34.6,4.9
		c5.8,0.1,11.7,0.1,17.5-0.5c2.9-0.2,5.8-0.6,8.7-1c1.4-0.2,2.9-0.5,4.3-0.7l2.2-0.4c0.7-0.1,1.4-0.3,2.1-0.5
		c11.4-2.3,22.5-6.2,32.7-11.6c5.1-2.7,9.9-5.9,14.4-9.4c1.1-0.9,2.3-1.8,3.3-2.7l3.1-2.8c1-1,2.1-2.1,3.1-3.2l0.8-0.8l0.2-0.2
		c0.1-0.1-0.1,0.1,0,0l0.1-0.1l0.3-0.4l1.4-1.6c7.3-8.7,12.5-19.2,15.2-30.2c2.8-11.1,3.2-22.8,1.6-34.2c-1.6-11.4-5.1-22.6-10.1-33
		c-2.5-5.2-5.4-10.2-8.7-15c-3.3-4.8-6.9-9.3-10.8-13.5c-0.5-0.5-0.9-1-1.5-1.6l-1.6-1.6l-1.5-1.5l-1.6-1.4c-1.1-0.9-2.1-2-3.2-2.9
		l-3.4-2.7c-4.6-3.5-9.4-6.7-14.5-9.6c-5.1-2.8-10.3-5.3-15.7-7.5c-1.3-0.6-2.7-1-4.1-1.5l-2-0.8c-0.7-0.2-1.4-0.4-2.1-0.7l-4.2-1.3
		l-4.2-1.2c-5.6-1.5-11.4-2.7-17.2-3.5c-2.9-0.5-5.8-0.7-8.7-1.1l-4.4-0.3l-2.2-0.2l-2.2-0.1l-4.4-0.1l-4.4,0c-1.5,0-2.9,0-4.4,0.1
		c-1.5,0.1-2.9,0.1-4.4,0.2c-2.9,0.3-5.8,0.4-8.7,0.8c-1.5,0.2-2.9,0.3-4.4,0.5l-4.3,0.7c-1.4,0.2-2.9,0.5-4.3,0.8l-4.3,0.9l-4.3,1
		l-2.1,0.5l-2.1,0.6l-4.2,1.2l-4.2,1.3l-2.1,0.7l-2.1,0.7l-4.1,1.5c-10.9,4.2-21.4,9.5-31.3,15.8l1.3-5.4l28.9,48.7l14.4,24.3
		l14.5,24.3c9.7,16.2,19,32.6,28.5,48.9l28.3,49l56.5,98L625.1,484z"/>
</g>
</svg>
